<?xml version="1.0" encoding="utf-8"?>
<!-- Generator: Adobe Illustrator 21.0.0, SVG Export Plug-In . SVG Version: 6.00 Build 0)  -->
<svg version="1.1"
	 id="Layer_1" xmlns:cc="http://creativecommons.org/ns#" xmlns:dc="http://purl.org/dc/elements/1.1/" xmlns:rdf="http://www.w3.org/1999/02/22-rdf-syntax-ns#" xmlns:svg="http://www.w3.org/2000/svg"
	 xmlns="http://www.w3.org/2000/svg" xmlns:xlink="http://www.w3.org/1999/xlink" x="0px" y="0px" viewBox="0 0 38 38"
	 style="enable-background:new 0 0 38 38;" xml:space="preserve">
<style type="text/css">
	.st0{display:none;}
	.st1{display:inline;}
	.st2{fill:#F7A000;}
</style>
<g id="g192" transform="translate(369.5,-295.8)" class="st0">
	<polygon id="polygon184" class="st1" points="-360.8,333.6 -369.5,328.6 -369.5,318.6 -360.8,313.6 -352.2,318.6 -352.2,328.6 	"/>
	<polygon id="polygon186" class="st1" points="-341.3,333.6 -350,328.6 -350,318.6 -341.3,313.6 -332.7,318.6 -332.7,328.6 	"/>
	<polygon id="polygon188" class="st1" points="-340.9,306.2 -336.7,303.8 -336.7,298.6 -341.1,296 -345.3,298.5 -340.9,301 	"/>
	<polygon id="polygon190" class="st1" points="-359.7,301.9 -359.7,311.9 -351.1,316.9 -342.4,311.9 -342.4,306.8 -346.7,304.3 
		-346.7,299.4 -351.1,296.9 	"/>
</g>
<g id="g192_1_" transform="translate(369.5,-295.8)">
	<polygon id="polygon184_1_" class="st2" points="-360.8,333.6 -369.5,328.6 -369.5,318.6 -360.8,313.6 -352.2,318.6 -352.2,328.6 	
		"/>
	<polygon id="polygon186_1_" class="st2" points="-341.3,333.6 -350,328.6 -350,318.6 -341.3,313.6 -332.7,318.6 -332.7,328.6 	"/>
	<polygon id="polygon188_1_" class="st2" points="-340.9,306.2 -336.7,303.8 -336.7,298.6 -341.1,296 -345.3,298.5 -340.9,301 	"/>
	<polygon id="polygon190_1_" class="st2" points="-359.7,301.9 -359.7,311.9 -351.1,316.9 -342.4,311.9 -342.4,306.8 -346.7,304.3 
		-346.7,299.4 -351.1,296.9 	"/>
</g>
</svg>
